<svg xmlns="http://www.w3.org/2000/svg" xmlns:xlink="http://www.w3.org/1999/xlink" viewBox="0 0 64 64" version="1.1" style="max-width:100%" height="100%">
<g id="surface1" style="" fill="currentColor">
<path style="" d="M 31 2 C 15.011719 2 2 15.007813 2 31 C 2 46.992188 15.011719 60 31 60 C 46.988281 60 60 46.992188 60 31 C 60 15.007813 46.988281 2 31 2 Z M 31 4 C 45.886719 4 58 16.113281 58 31 C 58 45.886719 45.886719 58 31 58 C 16.113281 58 4 45.886719 4 31 C 4 16.113281 16.113281 4 31 4 Z M 31 11 C 24.703125 11 18.75 14.03125 15 19.015625 L 15 14.917969 C 15 14.367188 14.554688 13.917969 14 13.917969 C 13.445313 13.917969 13 14.367188 13 14.917969 L 13 22 C 13 22.550781 13.445313 23 14 23 L 21 23 C 21.554688 23 22 22.550781 22 22 C 22 21.449219 21.554688 21 21 21 L 16.039063 21 C 19.363281 16.046875 25.011719 13 31 13 C 40.925781 13 49 21.074219 49 31 C 49 40.925781 40.925781 49 31 49 C 25.976563 49 21.3125 46.980469 17.875 43.316406 C 17.492188 42.914063 16.863281 42.894531 16.457031 43.269531 C 16.058594 43.648438 16.035156 44.28125 16.414063 44.6875 C 20.183594 48.699219 25.496094 51 31 51 C 42.027344 51 51 42.027344 51 31 C 51 19.972656 42.027344 11 31 11 Z M 31 16 C 30.445313 16 30 16.449219 30 17 L 30 19 C 30 19.550781 30.445313 20 31 20 C 31.554688 20 32 19.550781 32 19 L 32 17 C 32 16.449219 31.554688 16 31 16 Z M 41 20 C 40.746094 20 40.488281 20.097656 40.292969 20.292969 L 31.511719 29.074219 C 31.347656 29.03125 31.179688 29 31 29 C 29.898438 29 29 29.898438 29 31 C 29 32.101563 29.898438 33 31 33 C 31.179688 33 31.347656 32.96875 31.511719 32.925781 L 35.792969 37.207031 C 35.988281 37.402344 36.242188 37.5 36.5 37.5 C 36.757813 37.5 37.011719 37.402344 37.207031 37.207031 C 37.597656 36.816406 37.597656 36.183594 37.207031 35.792969 L 32.925781 31.511719 C 32.96875 31.347656 33 31.179688 33 31 C 33 30.820313 32.96875 30.652344 32.925781 30.488281 L 41.707031 21.707031 C 42.097656 21.316406 42.097656 20.683594 41.707031 20.292969 C 41.511719 20.097656 41.253906 20 41 20 Z M 43.996094 24.753906 C 43.867188 24.753906 43.734375 24.777344 43.605469 24.828125 L 41.75 25.578125 C 41.238281 25.785156 40.992188 26.367188 41.199219 26.878906 C 41.355469 27.269531 41.730469 27.503906 42.125 27.503906 C 42.25 27.503906 42.378906 27.484375 42.5 27.433594 L 44.355469 26.683594 C 44.867188 26.476563 45.113281 25.894531 44.90625 25.378906 C 44.75 24.996094 44.386719 24.761719 43.996094 24.753906 Z M 17 30 C 16.445313 30 16 30.449219 16 31 C 16 31.550781 16.445313 32 17 32 L 19 32 C 19.554688 32 20 31.550781 20 31 C 20 30.449219 19.554688 30 19 30 Z M 43 30 C 42.445313 30 42 30.449219 42 31 C 42 31.550781 42.445313 32 43 32 L 45 32 C 45.554688 32 46 31.550781 46 31 C 46 30.449219 45.554688 30 45 30 Z M 42.109375 34.496094 C 41.722656 34.5 41.355469 34.734375 41.199219 35.121094 C 40.992188 35.632813 41.238281 36.214844 41.75 36.421875 L 43.605469 37.171875 C 43.730469 37.222656 43.855469 37.246094 43.980469 37.246094 C 44.375 37.246094 44.75 37.007813 44.90625 36.621094 C 45.113281 36.105469 44.867188 35.523438 44.355469 35.316406 L 42.5 34.566406 C 42.375 34.515625 42.242188 34.492188 42.109375 34.496094 Z M 13.496094 37.410156 C 13.367188 37.410156 13.234375 37.433594 13.109375 37.488281 C 12.597656 37.703125 12.363281 38.289063 12.578125 38.796875 C 12.917969 39.597656 13.308594 40.378906 13.746094 41.125 C 13.933594 41.441406 14.265625 41.613281 14.609375 41.613281 C 14.78125 41.613281 14.957031 41.574219 15.113281 41.480469 C 15.589844 41.199219 15.75 40.585938 15.46875 40.109375 C 15.078125 39.4375 14.722656 38.734375 14.421875 38.019531 C 14.257813 37.636719 13.886719 37.410156 13.496094 37.410156 Z M 39.613281 38.335938 C 39.359375 38.339844 39.105469 38.441406 38.910156 38.640625 C 38.527344 39.039063 38.539063 39.671875 38.9375 40.054688 L 40.375 41.441406 C 40.566406 41.632813 40.816406 41.722656 41.066406 41.722656 C 41.332031 41.722656 41.59375 41.621094 41.789063 41.421875 C 42.171875 41.023438 42.160156 40.390625 41.765625 40.003906 L 40.328125 38.617188 C 40.128906 38.425781 39.871094 38.332031 39.613281 38.335938 Z M 31 42 C 30.445313 42 30 42.449219 30 43 L 30 45 C 30 45.550781 30.445313 46 31 46 C 31.554688 46 32 45.550781 32 45 L 32 43 C 32 42.449219 31.554688 42 31 42 Z " fill="currentColor"></path>
</g>
</svg>