<svg xmlns="http://www.w3.org/2000/svg" viewBox="0 0 64 64" style="max-width:100%" height="100%">
    <path d="M 25 4 C 23.53 4 22.300781 5.0704687 22.050781 6.4804688 C 20.360781 6.4904687 18.660703 6.5804687 16.970703 6.7304688 L 16.849609 6.7402344 C 8.3796094 7.5102344 2 14.5 2 23 C 2 27.869 4.0994687 32.235516 7.4804688 35.228516 L 18.460938 58.039062 C 19.620938 60.439062 22.099531 62 24.769531 62 L 30.009766 62 C 30.919766 62 31.730078 61.459141 32.080078 60.619141 C 32.420078 59.779141 32.229844 58.819688 31.589844 58.179688 L 30.849609 57.429688 C 30.309609 56.899687 29.939531 56.220234 29.769531 55.490234 L 28.523438 50 L 30.310547 50 C 31.268547 50 32.14675 49.559016 32.71875 48.791016 C 33.28975 48.022016 33.460547 47.056672 33.185547 46.138672 L 31.035156 38.970703 C 31.702156 38.881703 32.367297 38.790687 33.029297 38.679688 L 59.490234 34.259766 C 60.950234 34.019766 62 32.780547 62 31.310547 L 62 14.689453 C 62 13.219453 60.950234 11.980234 59.490234 11.740234 L 33.029297 7.3203125 C 31.359297 7.0403125 29.670469 6.8294531 27.980469 6.6894531 C 27.820469 5.1794531 26.54 4 25 4 z M 25 6 C 25.39 6 25.730625 6.2207813 25.890625 6.5507812 C 25.960625 6.6907813 26 6.84 26 7 L 26 38.869141 L 26 39 C 26 39.16 25.960625 39.309219 25.890625 39.449219 C 25.730625 39.779219 25.39 40 25 40 C 24.64 40 24.320391 39.799766 24.150391 39.509766 C 24.050391 39.359766 24 39.19 24 39 L 24 7 C 24 6.81 24.050391 6.6304688 24.150391 6.4804688 C 24.320391 6.1904687 24.64 6 25 6 z M 22 8.4804688 L 22 14.519531 C 18.51 15.749531 16 19.09 16 23 C 16 26.91 18.51 30.250469 22 31.480469 L 22 37.519531 C 20.38 37.509531 18.760391 37.429297 17.150391 37.279297 L 17.029297 37.269531 C 13.935297 36.990531 11.169422 35.754906 8.9824219 33.878906 C 8.9424219 33.838906 8.9014687 33.805437 8.8554688 33.773438 C 5.8634688 31.145437 4 27.295 4 23 C 4 15.54 9.5992969 9.4004687 17.029297 8.7304688 L 17.150391 8.7207031 C 18.760391 8.5707031 20.38 8.4904688 22 8.4804688 z M 28 8.7109375 C 29.57 8.8409375 31.139219 9.0407812 32.699219 9.3007812 L 59.169922 13.710938 C 59.649922 13.790937 60 14.199453 60 14.689453 L 60 31.310547 C 60 31.800547 59.649922 32.209062 59.169922 32.289062 L 58 32.484375 L 58 24 C 58 23.448 57.553 23 57 23 C 56.447 23 56 23.448 56 24 L 56 32.818359 L 32.699219 36.699219 C 31.139219 36.959219 29.57 37.159062 28 37.289062 L 28 31.480469 C 31.49 30.250469 34 26.91 34 23 C 34 19.09 31.49 15.749531 28 14.519531 L 28 8.7109375 z M 12.894531 13.335938 C 12.763656 13.353109 12.63 13.397656 12.5 13.472656 C 11.98 13.772656 11.858766 14.360844 12.134766 14.839844 L 13.134766 16.570312 C 13.321766 16.894313 13.655953 17.072266 14.001953 17.072266 C 14.130953 17.095266 14.327 17.0375 14.5 16.9375 C 15.02 16.6375 15.141234 16.049312 14.865234 15.570312 L 13.865234 13.839844 C 13.658234 13.480594 13.287156 13.284422 12.894531 13.335938 z M 57 15 C 56.447 15 56 15.448 56 16 L 56 20 C 56 20.552 56.447 21 57 21 C 57.553 21 58 20.552 58 20 L 58 16 C 58 15.448 57.553 15 57 15 z M 22 16.679688 L 22 29.320312 C 19.64 28.200312 18 25.79 18 23 C 18 20.21 19.64 17.799687 22 16.679688 z M 28 16.679688 C 30.36 17.799688 32 20.21 32 23 C 32 25.79 30.36 28.200312 28 29.320312 L 28 16.679688 z M 9.4648438 17.001953 C 9.0836094 16.944203 8.6976563 17.111953 8.4726562 17.501953 C 8.1726562 18.020953 8.3618437 18.590187 8.8398438 18.867188 L 10.570312 19.867188 C 10.729313 19.959187 10.876687 20.042297 11.054688 20.029297 C 11.414687 20.006297 11.7375 19.847953 11.9375 19.501953 C 12.2375 18.981953 12.049312 18.410766 11.570312 18.134766 L 9.8398438 17.134766 C 9.7200938 17.065766 9.5919219 17.021203 9.4648438 17.001953 z M 8 22 C 7.448 22 7 22.4 7 23 C 7 23.6 7.448 24 8 24 L 10 24 C 10.552 24 11 23.6 11 23 C 11 22.4 10.553 22 10 22 L 8 22 z M 10.945312 26.001953 C 10.818234 26.021203 10.692016 26.065766 10.572266 26.134766 L 8.8398438 27.134766 C 8.3608437 27.410766 8.1726562 27.98 8.4726562 28.5 C 8.6726562 28.846 8.9954687 29.006297 9.3554688 29.029297 C 9.5324687 29.042297 9.6798437 28.957234 9.8398438 28.865234 L 11.570312 27.865234 C 12.049312 27.589234 12.2375 27.02 11.9375 26.5 C 11.7125 26.11 11.326547 25.944203 10.945312 26.001953 z M 14.105469 28.925781 C 13.712844 28.874266 13.341766 29.068484 13.134766 29.427734 L 12.134766 31.160156 C 11.858766 31.639156 11.98 32.225391 12.5 32.525391 C 12.673 32.625391 12.869047 32.685109 12.998047 32.662109 C 13.345047 32.662109 13.681234 32.479156 13.865234 32.160156 L 14.865234 30.427734 C 15.142234 29.949734 15.02 29.3625 14.5 29.0625 C 14.37 28.9875 14.236344 28.942953 14.105469 28.925781 z M 10.798828 37.501953 C 12.629828 38.444953 14.668609 39.060766 16.849609 39.259766 L 16.970703 39.269531 C 18.660703 39.429531 20.360781 39.509531 22.050781 39.519531 C 22.280781 40.819531 23.340391 41.820469 24.650391 41.980469 L 27.820312 55.929688 C 28.070312 57.039687 28.629688 58.039609 29.429688 58.849609 L 30.179688 59.589844 C 30.249688 59.669844 30.270469 59.749609 30.230469 59.849609 C 30.190469 59.949609 30.11 60 30 60 L 24.769531 60 C 22.859531 60 21.089531 58.889922 20.269531 57.169922 L 10.798828 37.501953 z M 29.033203 39.201172 C 29.039203 39.230172 29.033969 39.258109 29.042969 39.287109 L 31.269531 46.712891 C 31.361531 47.018891 31.305234 47.339703 31.115234 47.595703 C 30.924234 47.852703 30.6315 48 30.3125 48 L 28.070312 48 L 26.599609 41.519531 C 27.349609 41.049531 27.880469 40.250547 27.980469 39.310547 C 28.332469 39.281547 28.682203 39.236172 29.033203 39.201172 z" style="" fill="currentColor"></path>
</svg>