<svg xmlns="http://www.w3.org/2000/svg" xmlns:xlink="http://www.w3.org/1999/xlink" viewBox="0 0 64 64" version="1.1" style="max-width:100%" height="100%">
<g id="surface1" style="" fill="currentColor">
<path style="" d="M 31 0.914063 C 30.328125 0.910156 29.65625 1.132813 29.109375 1.578125 L 24.53125 5.285156 C 24.3125 5.464844 24.023438 5.542969 23.746094 5.496094 L 17.921875 4.570313 C 16.53125 4.351563 15.15625 5.148438 14.652344 6.460938 L 12.539063 11.964844 C 12.4375 12.230469 12.230469 12.4375 11.964844 12.539063 L 6.460938 14.652344 C 5.148438 15.15625 4.351563 16.53125 4.570313 17.921875 L 5.496094 23.746094 C 5.539063 24.023438 5.464844 24.308594 5.285156 24.53125 L 1.578125 29.109375 C 0.691406 30.207031 0.691406 31.792969 1.578125 32.886719 L 5.285156 37.46875 C 5.464844 37.6875 5.542969 37.972656 5.496094 38.253906 L 4.570313 44.078125 C 4.351563 45.46875 5.148438 46.84375 6.460938 47.347656 L 11.964844 49.457031 C 12.230469 49.5625 12.4375 49.769531 12.539063 50.035156 L 14.652344 55.535156 C 15.15625 56.851563 16.535156 57.648438 17.921875 57.425781 L 23.746094 56.503906 C 24.023438 56.460938 24.308594 56.535156 24.53125 56.714844 L 29.109375 60.421875 C 29.660156 60.867188 30.328125 61.089844 31 61.089844 C 31.667969 61.089844 32.339844 60.867188 32.886719 60.421875 L 37.46875 56.714844 C 37.6875 56.535156 37.976563 56.457031 38.253906 56.5 L 44.078125 57.425781 C 45.464844 57.644531 46.84375 56.851563 47.347656 55.535156 L 49.457031 50.03125 C 49.5625 49.769531 49.769531 49.558594 50.035156 49.457031 L 55.535156 47.347656 C 56.851563 46.84375 57.644531 45.46875 57.425781 44.078125 L 56.503906 38.253906 C 56.460938 37.976563 56.535156 37.691406 56.714844 37.46875 L 60.421875 32.890625 C 61.308594 31.792969 61.308594 30.207031 60.421875 29.109375 L 56.714844 24.53125 C 56.535156 24.3125 56.457031 24.023438 56.503906 23.746094 L 57.425781 17.921875 C 57.644531 16.53125 56.851563 15.15625 55.535156 14.652344 L 50.035156 12.539063 C 49.769531 12.4375 49.5625 12.230469 49.460938 11.964844 L 47.347656 6.460938 C 46.84375 5.148438 45.46875 4.355469 44.078125 4.570313 L 38.253906 5.496094 C 37.976563 5.539063 37.691406 5.464844 37.46875 5.285156 L 32.890625 1.578125 C 32.339844 1.132813 31.671875 0.914063 31 0.914063 Z M 31 2.910156 C 31.222656 2.910156 31.449219 2.984375 31.628906 3.132813 L 36.210938 6.84375 C 36.871094 7.375 37.730469 7.609375 38.566406 7.476563 L 44.390625 6.550781 C 44.851563 6.476563 45.3125 6.742188 45.480469 7.179688 L 47.59375 12.683594 C 47.894531 13.476563 48.523438 14.101563 49.316406 14.40625 L 54.820313 16.519531 C 55.257813 16.6875 55.523438 17.144531 55.449219 17.609375 L 54.527344 23.433594 C 54.394531 24.269531 54.625 25.128906 55.15625 25.789063 L 58.867188 30.371094 C 59.164063 30.734375 59.164063 31.265625 58.867188 31.628906 L 55.15625 36.210938 C 54.625 36.871094 54.394531 37.730469 54.527344 38.566406 L 55.449219 44.390625 C 55.523438 44.855469 55.257813 45.3125 54.820313 45.480469 L 49.316406 47.59375 C 48.523438 47.894531 47.898438 48.523438 47.59375 49.316406 L 45.480469 54.820313 C 45.3125 55.257813 44.855469 55.523438 44.390625 55.449219 L 38.566406 54.527344 C 37.730469 54.394531 36.871094 54.625 36.210938 55.15625 L 31.628906 58.867188 C 31.265625 59.164063 30.734375 59.164063 30.371094 58.867188 L 25.789063 55.15625 C 25.253906 54.722656 24.582031 54.488281 23.898438 54.488281 C 23.742188 54.488281 23.585938 54.5 23.433594 54.527344 L 17.609375 55.449219 C 17.148438 55.523438 16.6875 55.257813 16.519531 54.820313 L 14.671875 50 L 14.933594 50 C 16.484375 50 17.855469 49.273438 18.769531 48.164063 C 18.875 48.246094 18.996094 48.308594 19.128906 48.34375 C 19.871094 48.546875 21.039063 48.644531 21.953125 48.644531 C 22.167969 48.644531 22.371094 48.640625 22.550781 48.628906 L 39.015625 47.597656 C 40.746094 47.492188 42.097656 46.050781 42.097656 44.320313 C 42.097656 43.519531 41.816406 42.765625 41.296875 42.167969 C 42.175781 41.515625 42.734375 40.472656 42.734375 39.324219 L 42.734375 38.867188 C 42.734375 38.050781 42.453125 37.296875 41.984375 36.699219 C 43.199219 36.066406 44 34.808594 44 33.375 C 44 32.238281 43.488281 31.214844 42.6875 30.53125 C 43.496094 29.839844 44 28.8125 44 27.675781 L 44 27.46875 C 44 25.519531 42.414063 24 40.46875 24 L 28.449219 24 L 30.125 17.230469 C 30.484375 15.785156 30.164063 14.285156 29.25 13.113281 C 28.332031 11.941406 26.953125 11.265625 25.46875 11.265625 L 25.265625 11.265625 C 24.875 11.265625 24.515625 11.496094 24.355469 11.855469 L 18.269531 25.238281 C 17.382813 24.4375 16.222656 24 14.933594 24 L 7.5 24 C 7.5 23.832031 7.5 23.597656 7.472656 23.433594 L 6.550781 17.609375 C 6.476563 17.144531 6.742188 16.6875 7.179688 16.519531 L 12.683594 14.40625 C 13.476563 14.105469 14.101563 13.476563 14.40625 12.683594 L 16.519531 7.179688 C 16.6875 6.742188 17.148438 6.480469 17.609375 6.550781 L 23.433594 7.472656 C 24.273438 7.605469 25.128906 7.375 25.789063 6.84375 L 30.371094 3.132813 C 30.554688 2.984375 30.777344 2.910156 31 2.910156 Z M 36.035156 10.691406 C 35.652344 10.746094 35.316406 11.023438 35.210938 11.421875 L 34.691406 13.355469 C 34.546875 13.886719 34.863281 14.4375 35.398438 14.578125 C 35.484375 14.601563 35.574219 14.613281 35.65625 14.613281 C 36.097656 14.613281 36.503906 14.320313 36.625 13.875 L 37.140625 11.941406 C 37.285156 11.40625 36.96875 10.859375 36.4375 10.71875 C 36.300781 10.679688 36.164063 10.671875 36.035156 10.691406 Z M 41.125 12.6875 C 40.734375 12.640625 40.339844 12.820313 40.136719 13.179688 L 39.136719 14.910156 C 38.859375 15.386719 39.023438 16 39.5 16.277344 C 39.65625 16.367188 39.828125 16.410156 40 16.410156 C 40.34375 16.410156 40.679688 16.230469 40.863281 15.910156 L 41.863281 14.179688 C 42.140625 13.703125 41.980469 13.089844 41.5 12.8125 C 41.378906 12.742188 41.253906 12.703125 41.125 12.6875 Z M 25.894531 13.296875 C 26.597656 13.40625 27.230469 13.773438 27.675781 14.34375 C 28.210938 15.027344 28.394531 15.902344 28.183594 16.746094 L 26.386719 23.933594 L 25.265625 23.933594 C 24.714844 23.933594 24.265625 24.382813 24.265625 24.933594 C 24.265625 25.484375 24.714844 25.933594 25.265625 25.933594 L 40.46875 25.933594 C 41.3125 25.933594 42 26.621094 42 27.46875 L 42 27.675781 C 42 28.53125 41.390625 29.253906 40.546875 29.394531 L 39.035156 29.644531 C 38.523438 29.730469 38.160156 30.199219 38.203125 30.71875 C 38.246094 31.234375 38.679688 31.632813 39.203125 31.632813 L 40.261719 31.632813 C 41.21875 31.632813 42 32.414063 42 33.375 C 42 34.230469 41.390625 34.953125 40.546875 35.09375 L 39.035156 35.347656 C 38.523438 35.433594 38.160156 35.898438 38.203125 36.417969 C 38.25 36.933594 38.679688 37.332031 39.203125 37.332031 C 40.046875 37.332031 40.734375 38.019531 40.734375 38.863281 L 40.734375 39.324219 C 40.734375 40.050781 40.214844 40.683594 39.5 40.828125 L 38.371094 41.050781 C 37.867188 41.152344 37.519531 41.617188 37.574219 42.128906 C 37.625 42.644531 38.054688 43.03125 38.566406 43.03125 L 38.8125 43.03125 C 39.15625 43.03125 39.480469 43.167969 39.722656 43.40625 C 39.96875 43.652344 40.101563 43.972656 40.101563 44.316406 C 40.101563 44.996094 39.570313 45.558594 38.894531 45.601563 L 22.425781 46.628906 C 21.6875 46.679688 20.382813 46.597656 19.703125 46.421875 C 19.835938 45.96875 19.933594 45.496094 19.933594 45 L 19.933594 28.933594 C 19.933594 28.242188 19.792969 27.582031 19.539063 26.984375 C 19.664063 26.886719 19.773438 26.769531 19.84375 26.613281 Z M 45.140625 15.859375 C 44.886719 15.859375 44.632813 15.953125 44.4375 16.152344 L 43.019531 17.5625 C 42.628906 17.957031 42.628906 18.585938 43.019531 18.980469 C 43.214844 19.171875 43.472656 19.269531 43.730469 19.269531 C 43.984375 19.269531 44.242188 19.171875 44.4375 18.980469 L 45.847656 17.5625 C 46.242188 17.171875 46.242188 16.542969 45.847656 16.152344 C 45.652344 15.953125 45.398438 15.859375 45.140625 15.859375 Z M 48.199219 20.007813 C 48.066406 20.023438 47.941406 20.066406 47.820313 20.136719 L 46.089844 21.136719 C 45.609375 21.410156 45.445313 22.023438 45.722656 22.5 C 45.910156 22.820313 46.242188 23 46.589844 23 C 46.757813 23 46.933594 22.957031 47.089844 22.863281 L 48.820313 21.863281 C 49.296875 21.589844 49.460938 20.976563 49.1875 20.5 C 48.980469 20.140625 48.582031 19.960938 48.199219 20.007813 Z M 50.457031 24.828125 C 50.328125 24.8125 50.195313 24.820313 50.0625 24.859375 L 48.128906 25.375 C 47.59375 25.519531 47.277344 26.066406 47.421875 26.597656 C 47.542969 27.046875 47.945313 27.34375 48.386719 27.34375 C 48.472656 27.34375 48.558594 27.332031 48.644531 27.308594 L 50.578125 26.789063 C 51.113281 26.644531 51.429688 26.097656 51.285156 25.5625 C 51.179688 25.164063 50.84375 24.882813 50.457031 24.828125 Z M 6.773438 25.875 C 6.859375 25.902344 6.945313 25.933594 7.039063 25.933594 L 14.9375 25.933594 C 16.589844 25.933594 17.9375 27.277344 17.9375 28.933594 L 17.9375 45 C 17.9375 46.652344 16.589844 48 14.9375 48 L 13.5625 48 C 13.515625 48 13.472656 48.019531 13.425781 48.027344 C 13.199219 47.851563 12.957031 47.695313 12.683594 47.59375 L 7.179688 45.480469 C 6.742188 45.308594 6.476563 44.851563 6.550781 44.390625 L 7.476563 38.566406 C 7.609375 37.726563 7.375 36.867188 6.84375 36.207031 L 3.132813 31.628906 C 2.835938 31.265625 2.835938 30.734375 3.132813 30.371094 Z M 49 30 C 48.449219 30 48 30.449219 48 31 C 48 31.550781 48.449219 32 49 32 L 51 32 C 51.550781 32 52 31.550781 52 31 C 52 30.449219 51.550781 30 51 30 Z " fill="currentColor"></path>
</g>
</svg>
